<?xml version="1.0" encoding="utf-8"?>
<!-- Generator: Adobe Illustrator 19.2.1, SVG Export Plug-In . SVG Version: 6.00 Build 0)  -->
<svg version="1.1" id="layer" xmlns="http://www.w3.org/2000/svg" xmlns:xlink="http://www.w3.org/1999/xlink" x="0px" y="0px"
	 viewBox="0 0 652 652" style="enable-background:new 0 0 652 652;" xml:space="preserve">
<path d="M112,321.5c0,25-20.1,45.3-45,45.3s-45-20.3-45-45.3s20.1-45.3,45-45.3S112,296.5,112,321.5 M161.3,321.5
	c0,23.5-10.1,42.6-22.5,42.6c-12.4,0-22.5-19.1-22.5-42.6s10.1-42.6,22.5-42.6C151.2,278.9,161.3,297.9,161.3,321.5 M181.5,321.5
	c0,21.1-3.5,38.2-7.9,38.2c-4.4,0-7.9-17.1-7.9-38.2s3.5-38.2,7.9-38.2S181.5,300.4,181.5,321.5 M305.6,280.1l0.1,0v-1h-25.6
	L256.4,335l-23.8-55.8h-27.6v1l0.1,0c4.7,1.1,7,2.6,7,8.3v66.4c0,5.7-2.4,7.2-7,8.3l-0.1,0v1h18.7v-1l-0.1,0c-4.7-1.1-7-2.6-7-8.3
	v-62.5l30.5,71.8h1.7l31.4-73.8v66.2c-0.4,4.5-2.7,5.9-7,6.8l-0.1,0v1h32.6v-1l-0.1,0c-4.2-1-6.6-2.3-7-6.8l0-68h0
	C298.6,282.8,301,281.2,305.6,280.1 M320.5,324.1c0.5-11.9,4.8-20.5,12-20.7c2.2,0,4.1,0.8,5.5,2.2c3.1,3,4.5,9.2,4.3,18.5H320.5z
	 M320.2,327.4h38.2v-0.2c-0.1-9.1-2.7-16.2-7.8-21.1c-4.4-4.2-10.9-6.5-17.8-6.5h-0.2c-3.6,0-7.9,0.9-11,2.4
	c-3.5,1.6-6.6,4.1-9.2,7.3c-4.2,5.2-6.7,12.1-7.3,20c0,0.2,0,0.5-0.1,0.7c0,0.2,0,0.4,0,0.7c-0.1,1.1-0.1,2.2-0.1,3.3
	c0.4,17.8,10,32,27.1,32c15,0,23.7-10.9,25.9-25.6l-1.1-0.4c-3.8,7.9-10.7,12.7-18.5,12.1C327.6,351.3,319.4,340.5,320.2,327.4
	 M401.5,351.5c-1.3,3-3.9,4.6-7.4,4.6s-6.7-2.4-9-6.8c-2.4-4.7-3.7-11.3-3.7-19.2c0-16.3,5.1-26.9,13-26.9c3.3,0,5.9,1.6,7.1,4.5
	V351.5z M426.9,363.2c-4.7-1.1-7-2.7-7-8.7v-79.3l-28.4,8.4v1l0.2,0c3.9-0.3,6.6,0.2,8.1,1.6c1.2,1.1,1.8,2.8,1.8,5.2v10.9
	c-2.8-1.8-6.1-2.7-10.2-2.7c-8.2,0-15.7,3.4-21.1,9.7c-5.6,6.5-8.6,15.4-8.6,25.8c0,18.5,9.1,30.9,22.6,30.9
	c7.9,0,14.3-4.3,17.2-11.7v9.8H427v-1L426.9,363.2z M451.2,286c0-5.8-4.3-10.1-10.1-10.1c-5.7,0-10.2,4.4-10.2,10.1
	s4.5,10.1,10.2,10.1C446.8,296.1,451.2,291.8,451.2,286 M457.9,363.2c-4.7-1.1-7-2.7-7-8.7h0v-54.6l-25.5,7.3v1l0.2,0
	c5.5,0.5,7,2.4,7,8.8v47.2H458v-1L457.9,363.2z M523.1,363.2c-4.7-1.1-7-2.7-7-8.7v-54.6l-24.2,7.1v1l0.1,0c4.5,0.5,5.8,2.5,5.8,8.9
	v34.5c-1.5,3-4.3,4.7-7.7,4.9c-5.5,0-8.6-3.7-8.6-10.5v-45.9l-25.5,7.3v1l0.2,0c5.5,0.5,7,2.4,7,8.8v29.2c0,2,0.2,4.1,0.5,6.1l0.5,2
	c2.2,7.7,7.8,11.8,16.6,11.8c7.5,0,14.1-4.6,17-11.9v10.1h25.5v-1L523.1,363.2z M622,364.2v-1l-0.1,0c-5.1-1.2-7-3.4-7-7.9v-37.1
	c0-11.6-6.5-18.5-17.4-18.5c-7.9,0-14.6,4.6-17.2,11.7c-2-7.6-7.9-11.7-16.7-11.7c-7.7,0-13.7,4-16.2,10.9v-10.7l-25.5,7v1l0.2,0
	c5.4,0.5,7,2.4,7,8.7v47.6h23.8v-1l-0.1,0c-4-0.9-5.3-2.7-5.3-7.1v-42.6c1.1-2.5,3.2-5.5,7.5-5.5c5.3,0,8,3.7,8,10.9v45.3h23.8v-1
	l-0.1,0c-4-0.9-5.3-2.7-5.3-7.1v-37.9c0-1.4-0.1-2.8-0.3-4.2c1.1-2.7,3.4-5.9,7.8-5.9c5.4,0,8,3.6,8,10.9v45.3H622z"/>
</svg>
