<svg xmlns="http://www.w3.org/2000/svg" viewBox="0 0 31 31"><defs><style>.cls-1{fill:none;stroke:#000;stroke-miterlimit:10;}</style></defs><g id="Layer_2" data-name="Layer 2"><g id="Layer_2-2" data-name="Layer 2"><circle class="cls-1" cx="15.5" cy="15.5" r="15"/><ellipse class="cls-1" cx="16.13" cy="15.11" rx="3.12" ry="3.39"/><path class="cls-1" d="M22.59,10.37H20a.81.81,0,0,1-.73-.87h0a.93.93,0,0,0-.84-1h-5a.93.93,0,0,0-.84,1h0a.81.81,0,0,1-.74.87H9.41a1.63,1.63,0,0,0-1.47,1.75v7.13A1.63,1.63,0,0,0,9.41,21H22.59a1.63,1.63,0,0,0,1.47-1.75V12.12A1.63,1.63,0,0,0,22.59,10.37Z"/></g></g></svg>