<svg xmlns="http://www.w3.org/2000/svg" viewBox="0 0 16.4 18.75"><defs><style>.cls-1{fill:none;stroke:#000;stroke-miterlimit:10;stroke-width:0.75px;}</style></defs><g id="Layer_2" data-name="Layer 2"><g id="Layer_2-2" data-name="Layer 2"><path class="cls-1" d="M13.48,5.4a5.17,5.17,0,0,0-5.3-5A5.26,5.26,0,0,0,2.91,5.55"/><path class="cls-1" d="M5.2,15.5a3,3,0,0,0,3,2.88,3,3,0,0,0,3-2.88"/><path class="cls-1" d="M2.92,5.55l0,4.81a.42.42,0,0,1-.43.42c-.72,0-2.09.3-2.09,2.42v1.86a.34.34,0,0,0,.35.33h9.64"/><path class="cls-1" d="M13.48,5.16l0,5.2a.42.42,0,0,0,.43.42c.72,0,2.1.3,2.1,2.42v1.86a.35.35,0,0,1-.36.33H6"/></g></g></svg>