<svg xmlns="http://www.w3.org/2000/svg" viewBox="0 0 26 27.8"><defs><style>.cls-1{fill:#dededc;}</style></defs><g id="Layer_2" data-name="Layer 2"><g id="Layer_2-2" data-name="Layer 2"><path class="cls-1" d="M18.7,19.28A2.21,2.21,0,0,1,17,16.19l0-.06h.05l.08,0h0l.15-.05h0a1.31,1.31,0,0,0,.21-.1l.07,0,.18-.13.08-.07a2.55,2.55,0,0,0,.24-.23l.05-.05h0l0,0a5.43,5.43,0,0,0,.63-.91,2.1,2.1,0,0,0,.24-.69c0-.28.11-.71.17-1.25V12.4c0-.24.05-.49.08-.77a.92.92,0,0,1,0-.16c0-.28,0-.58.06-.89a.66.66,0,0,1,0-.14c0-.34,0-.68,0-1h0c0-.36,0-.73,0-1.11V8.1c0-.37,0-.75-.06-1.13,0-.08,0-.15,0-.22,0-.39-.07-.78-.13-1.18a1.1,1.1,0,0,0,0-.18c-.06-.41-.13-.84-.21-1.26C18.48,1.51,15.76,0,13,0S7.52,1.51,7,4.13a28.78,28.78,0,0,0-.16,9,4.19,4.19,0,0,0,1,2.24A1.81,1.81,0,0,0,9,16.13l0,.06A2.21,2.21,0,0,1,7.3,19.28,52.85,52.85,0,0,0,0,21.13c4.68,5,9.14,6.68,13,6.67s8.32-1.65,13-6.67A52.85,52.85,0,0,0,18.7,19.28Z"/></g></g></svg>